<svg version="1.1" id="finder" xmlns="http://www.w3.org/2000/svg" xmlns:xlink="http://www.w3.org/1999/xlink" x="0px" y="0px"
	 viewBox="0 0 500 150" style="enable-background:new 0 0 500 150;" xml:space="preserve">
<style type="text/css">
	.icon{fill:url(#SVGID_1_);}
	.title{fill:#424242;}
</style>
<linearGradient id="SVGID_1_" gradientUnits="userSpaceOnUse" x1="78.1438" y1="37.0112" x2="55.3374" y2="114.7216">
	<stop  offset="0" style="stop-color:#C4FFA0"/>
	<stop  offset="1" style="stop-color:#22C7FF"/>
</linearGradient>
<path class="icon" d="M68.55,21.71c1.32,5.79-3.06,19.56-9.75,22.02c-11.67,4.29-13.17,21.29-13.17,21.29s-3.97-5.24-3.35-20.16
	c0.03-0.65-24.03,13.51-24.03,36.38c0,25.74,20.87,46.61,46.61,46.61c25.74,0,46.61-20.87,46.61-46.61
	C111.48,56.73,92.57,24.73,68.55,21.71z M42.62,84.83c-1.61,0-2.91-1.3-2.91-2.91c0-1.61,1.3-2.91,2.91-2.91
	c1.61,0,2.91,1.3,2.91,2.91C45.53,83.53,44.23,84.83,42.62,84.83z M87.11,84.08c-1.61,0-2.91-1.3-2.91-2.91
	c0-1.61,1.3-2.91,2.91-2.91c1.61,0,2.91,1.3,2.91,2.91C90.02,82.78,88.72,84.08,87.11,84.08z"/>
<g>
	<path class="title" d="M158.57,46.8c0-6.47,2.74-9.71,8.21-9.71c2.35,0,4.69,0.59,7.04,1.77l5.47-15.46
		c-4.43-1.77-9.91-2.65-16.42-2.65c-15.9-0.88-23.59,7.95-23.06,26.49v8.39h-10.16v16.34h10.16v53.43h18.76V71.97h23.84v53.43h19.54
		V71.97V55.63h-43.38V46.8z"/>
	<rect x="182.41" y="27.81" class="title" width="19.54" height="18.1"/>
</g>
<path class="title" d="M275.04,124.96h-19.15V86.1c0.26-10.6-3.52-15.74-11.33-15.46c-7.82,0.59-11.86,6.04-12.12,16.34v37.97h-19.15
	V55.63h19.15v10.6c4.95-7.65,11.59-11.77,19.93-12.36c15.37-0.29,22.93,9.27,22.67,28.7V124.96z"/>
<path class="title" d="M348.13,124.96h-19.15v-8.83c-3.13,7.07-9.51,10.6-19.15,10.6c-16.42-1.18-25.01-12.65-25.8-34.44
	c-0.26-25.9,9.12-38.71,28.14-38.42c8.07,0.59,13.68,4.57,16.81,11.92V21.63h19.15V124.96z M329.37,90.51v-3.53
	c-0.53-10.3-4.69-15.74-12.51-16.34c-8.86,0.3-13.42,7.07-13.68,20.31c0.26,12.96,4.69,19.58,13.29,19.87
	C325.07,110.83,329.37,104.06,329.37,90.51z"/>
<path class="title" d="M425.51,91.4v5.3h-48.07c0.78,9.42,5.99,14.57,15.63,15.46c7.29,0,11.73-2.79,13.29-8.39l20.32,2.65
	c-4.95,13.54-16.02,20.31-33.22,20.31c-22.41-0.88-34.14-12.51-35.18-34.88c1.04-24.43,11.98-37.09,32.83-37.97
	C413.79,54.16,425.25,66.67,425.51,91.4z M377.05,83.45h30.1c-0.78-9.12-5.73-14.13-14.85-15.01
	C382.91,69.03,377.83,74.03,377.05,83.45z"/>
<path class="title" d="M481.41,57.4l-6.25,18.1c-2.09-1.77-4.69-2.65-7.82-2.65c-8.34,0.3-12.64,6.18-12.9,17.66v34.44h-18.76V55.63
	h18.76v12.81c3.13-9.71,8.6-14.57,16.42-14.57C475.02,54.16,478.54,55.34,481.41,57.4z"/>
</svg>
